<svg width="50" height="50" viewBox="0 0 50 50" fill="none" xmlns="http://www.w3.org/2000/svg">
<path d="M24.8048 15.735C21.5437 15.735 18.8906 13.0816 18.8906 9.82051C18.8906 6.55937 21.5437 3.90625 24.8048 3.90625C28.066 3.90625 30.7191 6.55937 30.7191 9.82051C30.7191 13.0818 28.066 15.735 24.8048 15.735ZM24.8048 4.88281C22.0822 4.88281 19.8671 7.09785 19.8671 9.82051C19.8671 12.5432 22.0822 14.7584 24.8048 14.7584C27.5275 14.7584 29.7425 12.5434 29.7425 9.82051C29.7425 7.09785 27.5275 4.88281 24.8048 4.88281Z" fill="#3E4345"/>
<path d="M24.0047 12.7797C23.6728 12.7797 23.3607 12.6504 23.1262 12.4158L21.1697 10.4594C20.9349 10.2248 20.8058 9.91291 20.8058 9.58108C20.8058 9.24924 20.9351 8.93733 21.1697 8.70256C21.6539 8.21858 22.442 8.21858 22.9264 8.70256L24.0047 9.78088L26.7599 7.02561C26.9943 6.79104 27.3062 6.66174 27.6383 6.66174C27.9701 6.66174 28.282 6.79104 28.5166 7.02561C28.7511 7.25999 28.8803 7.5719 28.8803 7.90393C28.8803 8.23577 28.751 8.54768 28.5164 8.78225L24.8828 12.4158C24.6486 12.6506 24.3365 12.7797 24.0047 12.7797ZM22.0482 9.31565C21.9803 9.31565 21.9121 9.34143 21.8603 9.39338C21.8103 9.44338 21.7826 9.51018 21.7826 9.58108C21.7826 9.65198 21.8103 9.71877 21.8603 9.76877L23.817 11.7254C23.9174 11.8258 24.0924 11.8256 24.1924 11.7254L27.8262 8.09182C27.8763 8.04163 27.9039 7.97483 27.9039 7.90393C27.9039 7.83303 27.8762 7.76623 27.8262 7.71624C27.7258 7.61565 27.5508 7.61584 27.4508 7.71604L24.35 10.8166C24.2584 10.9082 24.1344 10.9596 24.0047 10.9596C23.8752 10.9596 23.751 10.9082 23.6594 10.8166L22.2359 9.39319C22.1844 9.34163 22.1164 9.31565 22.0482 9.31565Z" fill="#3E4345"/>
<path d="M33.9189 11.5844C33.6844 11.4509 33.3863 11.5331 33.2531 11.7675C33.1197 12.0018 33.2016 12.3001 33.4359 12.4333C38.8943 15.5389 42.2852 21.3645 42.2852 27.6368C42.2852 37.2757 34.4436 45.1173 24.8047 45.1173C15.1658 45.1173 7.32422 37.2757 7.32422 27.6368C7.32422 21.5639 10.4898 15.9323 15.6332 12.7563V17.371C15.6332 17.6407 15.8518 17.8593 16.1215 17.8593C16.3912 17.8593 16.6098 17.6407 16.6098 17.371V11.9022C16.6098 11.6325 16.3912 11.4139 16.1215 11.4139H10.6527C10.383 11.4139 10.1645 11.6325 10.1645 11.9022C10.1645 12.1719 10.383 12.3905 10.6527 12.3905H14.4049C9.39805 15.8114 6.34766 21.5112 6.34766 27.6368C6.34766 37.8139 14.6275 46.0938 24.8047 46.0938C34.9818 46.0938 43.2617 37.8139 43.2617 27.6368C43.2617 21.0143 39.6818 14.8634 33.9189 11.5844Z" fill="#011B1D"/>
<path d="M23.837 34.9978H16.5116C15.9559 34.9978 15.5038 34.5457 15.5038 33.99V33.2509C15.5038 33.0052 15.5932 32.7685 15.7557 32.5843L19.7635 28.0381C20.3678 27.3412 20.7866 26.7713 21.0055 26.3467C21.187 25.9953 21.2788 25.6617 21.2788 25.3551C21.2788 24.8849 21.1665 24.5543 20.9254 24.3148C20.6827 24.0736 20.3393 23.9611 19.8446 23.9611C19.3315 23.9611 18.9561 24.1029 18.6629 24.4072C18.3592 24.7226 18.2178 25.1234 18.2178 25.6683C18.2178 26.224 17.7657 26.6761 17.21 26.6761H16.2542C15.6985 26.6761 15.2463 26.2242 15.2463 25.6683C15.2463 24.8414 15.4381 24.0726 15.8167 23.384C16.2047 22.6777 16.7631 22.117 17.4762 21.7172C18.1749 21.3252 18.9717 21.1263 19.8446 21.1263C21.1741 21.1263 22.2499 21.5011 23.0424 22.2406C23.8545 22.9988 24.2663 24.0197 24.2663 25.275C24.2663 25.9834 24.0559 26.7435 23.6409 27.5343C23.2594 28.2607 22.6274 29.1195 21.7081 30.1593L19.9288 32.1709H23.8368C24.3924 32.1709 24.8446 32.6228 24.8446 33.1787V33.99C24.8448 34.5457 24.3926 34.9978 23.837 34.9978ZM19.8448 22.9845C20.6038 22.9845 21.1827 23.1931 21.6143 23.6222C22.0399 24.0453 22.2555 24.6283 22.2555 25.3551C22.2555 25.8191 22.127 26.3035 21.8733 26.7947C21.6188 27.2879 21.1563 27.9226 20.4987 28.681L16.4879 33.2304C16.4829 33.2361 16.4801 33.2435 16.4801 33.2509V33.99C16.4801 34.0072 16.4942 34.0213 16.5114 34.0213H23.8368C23.854 34.0213 23.868 34.0072 23.868 33.99V33.1787C23.868 33.1615 23.854 33.1474 23.8368 33.1474H18.8452C18.6532 33.1474 18.479 33.0347 18.4001 32.8597C18.3211 32.6847 18.3522 32.4795 18.4795 32.3357L20.9768 29.5125C21.8434 28.532 22.4319 27.7365 22.7764 27.0804C23.117 26.431 23.2899 25.8236 23.2899 25.275C23.2899 24.3013 22.9825 23.5207 22.3764 22.9547C21.7708 22.3896 20.919 22.1031 19.845 22.1031C19.1415 22.1031 18.5053 22.2599 17.9542 22.5691C17.4026 22.8783 16.9715 23.3107 16.6727 23.8545C16.3745 24.3974 16.2231 25.008 16.2231 25.6687C16.2231 25.6859 16.2372 25.7 16.2543 25.7H17.2102C17.2274 25.7 17.2415 25.6859 17.2415 25.6687C17.2415 24.8775 17.4831 24.2254 17.9598 23.7304C18.436 23.2353 19.0704 22.9845 19.8448 22.9845Z" fill="#3E4345"/>
<path d="M31.532 34.9979H30.5681C30.0125 34.9979 29.5603 34.5458 29.5603 33.9901V32.0419H25.0658C24.5101 32.0419 24.058 31.5899 24.058 31.0341V30.4878C24.058 30.2897 24.1156 30.0977 24.2248 29.9323L29.6386 21.7391C29.8256 21.4561 30.1398 21.287 30.4795 21.287H31.5318C32.0875 21.287 32.5396 21.7389 32.5396 22.2948V29.2151H33.3553C33.9109 29.2151 34.3631 29.6671 34.3631 30.2229V31.0343C34.3631 31.5899 33.9111 32.0421 33.3553 32.0421H32.5396V33.9903C32.5396 34.5458 32.0877 34.9979 31.532 34.9979ZM30.4797 22.2636C30.4691 22.2636 30.4595 22.2686 30.4539 22.2774L25.04 30.4706L25.0347 31.0341C25.0347 31.0512 25.0488 31.0653 25.066 31.0653H30.0488C30.3185 31.0653 30.5371 31.2839 30.5371 31.5536V33.9901C30.5371 34.0073 30.5511 34.0214 30.5683 34.0214H31.5322C31.5494 34.0214 31.5635 34.0073 31.5635 33.9901V31.5536C31.5635 31.2839 31.782 31.0653 32.0517 31.0653H33.3556C33.3728 31.0653 33.3869 31.0512 33.3869 31.0341V30.2227C33.3869 30.2055 33.3728 30.1915 33.3556 30.1915H32.0517C31.782 30.1915 31.5635 29.9729 31.5635 29.7032V22.2946C31.5635 22.2774 31.5494 22.2634 31.5322 22.2634H30.4797V22.2636ZM30.0486 30.1917H27.2082C27.0287 30.1917 26.8638 30.0934 26.7785 29.9354C26.6931 29.7776 26.7013 29.5858 26.7998 29.4356L29.6402 25.1018C29.7584 24.9214 29.9812 24.8397 30.1883 24.9016C30.3953 24.9634 30.5369 25.1536 30.5369 25.3696V29.7034C30.5369 29.9729 30.3183 30.1917 30.0486 30.1917ZM28.1121 29.2151H29.5603V27.0053L28.1121 29.2151Z" fill="#3E4345"/>
</svg>
