<svg width="50" height="50" viewBox="0 0 50 50" fill="none" xmlns="http://www.w3.org/2000/svg">
<path d="M24.8047 11.2417C24.535 11.2417 24.3164 11.4603 24.3164 11.73V14.0737C24.3164 14.3435 24.535 14.562 24.8047 14.562C25.0744 14.562 25.293 14.3435 25.293 14.0737V11.73C25.293 11.4603 25.0744 11.2417 24.8047 11.2417Z" fill="#3E4345"/>
<path d="M24.8047 15.9292C24.535 15.9292 24.3164 16.1478 24.3164 16.4175V17.2524C24.3164 17.5222 24.535 17.7407 24.8047 17.7407C25.0744 17.7407 25.293 17.5222 25.293 17.2524V16.4175C25.293 16.1478 25.0744 15.9292 24.8047 15.9292Z" fill="#3E4345"/>
<path d="M24.8047 6.5542C24.535 6.5542 24.3164 6.77275 24.3164 7.04248V9.38623C24.3164 9.65596 24.535 9.87451 24.8047 9.87451C25.0744 9.87451 25.293 9.65596 25.293 9.38623V7.04248C25.293 6.77275 25.0744 6.5542 24.8047 6.5542Z" fill="#3E4345"/>
<path d="M39.8466 22.6159C39.7632 22.4524 39.595 22.3493 39.4114 22.3493H32.838V7.04248C32.838 6.77275 32.6194 6.5542 32.3497 6.5542H17.2599C16.9901 6.5542 16.7716 6.77275 16.7716 7.04248V22.3495H10.1981C10.0145 22.3495 9.84638 22.4524 9.76298 22.6161C9.67958 22.7796 9.69501 22.9761 9.80282 23.1247L24.4095 43.2442C24.5015 43.3708 24.6483 43.4456 24.8046 43.4456C24.9608 43.4456 25.1079 43.3708 25.1997 43.2442L39.8063 23.1247C39.9144 22.9761 39.9298 22.7796 39.8466 22.6159ZM24.8048 42.1261L11.1559 23.3261H17.2599C17.5296 23.3261 17.7481 23.1075 17.7481 22.8378V7.53076H31.8614V22.8378C31.8614 23.1075 32.08 23.3261 32.3497 23.3261H38.4536L24.8048 42.1261Z" fill="#011B1D"/>
<path d="M22.2589 23.1466C21.1364 23.1466 20.2231 22.2335 20.2231 21.1111C20.2231 19.9886 21.1364 19.0753 22.2589 19.0753C23.3813 19.0753 24.2946 19.9886 24.2946 21.1111C24.2946 22.2335 23.3813 23.1466 22.2589 23.1466ZM22.2589 20.0519C21.6749 20.0519 21.1997 20.5271 21.1997 21.1111C21.1997 21.695 21.6749 22.17 22.2589 22.17C22.8429 22.17 23.3181 21.6948 23.3181 21.1111C23.3181 20.5271 22.8429 20.0519 22.2589 20.0519Z" fill="#3E4345"/>
<path d="M27.3501 29.7739C26.2277 29.7739 25.3144 28.8606 25.3144 27.7381C25.3144 26.6157 26.2277 25.7024 27.3501 25.7024C28.4726 25.7024 29.3859 26.6157 29.3859 27.7381C29.3859 28.8606 28.4726 29.7739 27.3501 29.7739ZM27.3501 26.679C26.7662 26.679 26.291 27.1542 26.291 27.7381C26.291 28.3221 26.7662 28.7973 27.3501 28.7973C27.9341 28.7973 28.4093 28.3221 28.4093 27.7381C28.4093 27.1542 27.9341 26.679 27.3501 26.679Z" fill="#3E4345"/>
<path d="M21.903 30.132C21.8228 30.132 21.7413 30.1121 21.6661 30.0705C21.4304 29.9394 21.3456 29.6421 21.4765 29.4064L27.2786 18.9685C27.4097 18.7328 27.7071 18.648 27.9427 18.779C28.1784 18.9101 28.2632 19.2074 28.1323 19.4431L22.3302 29.881C22.2409 30.0413 22.0743 30.132 21.903 30.132Z" fill="#3E4345"/>
</svg>
