<svg width="50" height="50" viewBox="0 0 50 50" fill="none" xmlns="http://www.w3.org/2000/svg">
<path d="M40.3822 26.8326C39.6996 26.4619 39.292 25.7768 39.292 24.9998C39.292 24.2229 39.6996 23.5379 40.3822 23.167C41.9281 22.3275 42.225 20.7354 41.8332 19.5299C41.4416 18.3244 40.265 17.2104 38.5215 17.4402C37.7514 17.5408 37.0189 17.227 36.5621 16.5984C36.1055 15.9699 36.0326 15.1762 36.3668 14.4748C37.124 12.8869 36.4283 11.4244 35.4027 10.6793C34.3773 9.93438 32.7713 9.72422 31.4953 10.9354C30.9318 11.4701 30.1539 11.6461 29.4154 11.4061C28.6766 11.1658 28.151 10.5666 28.0094 9.80273C27.6887 8.07305 26.2662 7.29883 24.9986 7.29883C23.731 7.29883 22.3086 8.07305 21.9879 9.80273C21.8463 10.5666 21.3207 11.1658 20.5818 11.4061C19.8428 11.6459 19.0654 11.4703 18.5019 10.9354C17.2258 9.72441 15.6199 9.93438 14.5945 10.6793C13.5689 11.4244 12.8732 12.8869 13.6305 14.4748C13.9648 15.176 13.8918 15.9699 13.4353 16.5984C12.9789 17.227 12.2469 17.5416 11.476 17.4402C9.73046 17.21 8.55585 18.3244 8.16425 19.5299C7.77265 20.7354 8.06933 22.3275 9.61523 23.167C10.2978 23.5377 10.7055 24.2229 10.7055 24.9998C10.7055 25.7766 10.2978 26.4617 9.61523 26.8326C8.06914 27.6721 7.77246 29.2643 8.16425 30.4697C8.55585 31.6752 9.73242 32.7893 11.476 32.5594C12.2461 32.4588 12.9785 32.7727 13.4353 33.4012C13.892 34.0297 13.9648 34.8234 13.6305 35.5248C12.8732 37.1127 13.5689 38.5752 14.5945 39.3203C15.6195 40.0652 17.2258 40.2752 18.5019 39.0643C19.0654 38.5295 19.8432 38.3535 20.5818 38.5936C21.3207 38.8336 21.8463 39.433 21.9879 40.1969C22.3086 41.9266 23.731 42.7008 24.9986 42.7008C26.2662 42.7008 27.6887 41.9266 28.0094 40.1969C28.151 39.433 28.6768 38.8336 29.4154 38.5936C30.1541 38.3537 30.9318 38.5295 31.4953 39.0643C32.7713 40.275 34.3771 40.065 35.4027 39.3203C36.4283 38.5752 37.124 37.1127 36.3668 35.5248C36.0324 34.8236 36.1055 34.0297 36.5621 33.4012C37.0187 32.7728 37.7518 32.4586 38.5215 32.5594C40.266 32.7896 41.4414 31.6752 41.8332 30.4697C42.225 29.2641 41.9283 27.6721 40.3822 26.8326ZM40.9045 30.1678C40.6574 30.9287 39.9199 31.759 38.649 31.591C37.518 31.4424 36.4428 31.9043 35.7723 32.827C35.1018 33.7496 34.9947 34.9152 35.4857 35.9449C36.0367 37.1006 35.4766 38.0596 34.8293 38.5299C34.1818 39 33.0967 39.2365 32.168 38.3555C31.3406 37.5705 30.1994 37.3119 29.1141 37.6645C28.0293 38.017 27.2576 38.8969 27.0496 40.0186C26.8162 41.2773 25.7992 41.7238 24.999 41.7238C24.1988 41.7238 23.1818 41.2771 22.9484 40.0186C22.7406 38.8969 21.9687 38.017 20.884 37.6645C20.5644 37.5605 20.24 37.5098 19.9201 37.5098C19.1539 37.5098 18.4137 37.8016 17.8299 38.3555C16.9014 39.2363 15.8158 39 15.1685 38.5299C14.5213 38.0596 13.9609 37.1004 14.5121 35.9449C15.0031 34.9154 14.8961 33.7498 14.2256 32.827C13.5551 31.9041 12.4793 31.4424 11.3488 31.591C10.0793 31.7578 9.34042 30.9287 9.09335 30.1678C8.84609 29.4068 8.95664 28.3016 10.0816 27.6906C11.084 27.1463 11.6824 26.1404 11.6824 24.9998C11.6824 23.8592 11.084 22.8531 10.0816 22.3088C8.95664 21.698 8.84609 20.5926 9.09335 19.8316C9.34062 19.0707 10.0783 18.2416 11.3488 18.4084C12.4801 18.557 13.5551 18.0953 14.2256 17.1725C14.8961 16.2496 15.0031 15.0842 14.5121 14.0545C13.9611 12.8988 14.5213 11.9398 15.1685 11.4695C15.816 10.9994 16.9012 10.7629 17.8299 11.6439C18.6572 12.4291 19.799 12.6877 20.8838 12.335C21.9685 11.9824 22.7402 11.1025 22.9482 9.98086C23.1816 8.72207 24.1986 8.27559 24.9988 8.27559C25.799 8.27559 26.816 8.72227 27.0494 9.98086C27.2574 11.1025 28.0291 11.9824 29.1139 12.335C30.1988 12.6877 31.3404 12.4291 32.1678 11.6439C33.0961 10.7629 34.1816 10.9992 34.8291 11.4695C35.4764 11.9398 36.0367 12.899 35.4855 14.0545C34.9945 15.084 35.1016 16.2496 35.7721 17.1725C36.4428 18.0953 37.5186 18.557 38.6488 18.4084C39.9178 18.2412 40.6572 19.0707 40.9043 19.8316C41.1516 20.5926 41.041 21.6979 39.916 22.3088C38.9137 22.8531 38.3152 23.859 38.3152 24.9996C38.3152 26.1402 38.9137 27.1463 39.916 27.6906C41.0412 28.3016 41.1518 29.4068 40.9045 30.1678Z" fill="#011B1D"/>
<path d="M32.4214 31.2172H28.8064C28.5367 31.2172 28.3181 30.9986 28.3181 30.7289V23.8086C28.3181 23.5389 28.5367 23.3203 28.8064 23.3203H32.4214C32.6912 23.3203 32.9097 23.5389 32.9097 23.8086V30.7289C32.9097 30.9984 32.6912 31.2172 32.4214 31.2172ZM29.2947 30.2406H31.9332V24.2969H29.2947V30.2406Z" fill="#3E4345"/>
<path d="M23.0779 31.4335H18.3959C17.6758 31.4335 17.0898 30.8478 17.0898 30.1277V23.9634C17.0898 23.2433 17.6756 22.6574 18.3959 22.6574H22.2604C22.9805 22.6574 23.5664 23.2433 23.5664 23.9634V28.581C23.5664 28.8507 23.3479 29.0693 23.0781 29.0693C22.8084 29.0693 22.5898 28.8507 22.5898 28.581V23.9634C22.5898 23.7818 22.4422 23.6339 22.2604 23.6339H18.3959C18.2143 23.6339 18.0664 23.7816 18.0664 23.9634V30.1277C18.0664 30.3093 18.2141 30.457 18.3959 30.457H23.0307L28.3188 29.4201V25.1449C27.7012 24.6072 25.5813 22.75 24.5375 21.6921C23.5688 20.7105 23.2367 19.1572 23.1287 18.0271C23.1076 17.8056 22.9445 17.7205 22.8756 17.6941C22.824 17.6744 22.6541 17.6244 22.4891 17.7408C22.3197 18.0484 21.6197 19.4447 21.9348 20.9654C21.9895 21.2295 21.8199 21.4879 21.5559 21.5425C21.2924 21.5982 21.0334 21.4275 20.9787 21.1636C20.5426 19.0589 21.6469 17.241 21.6943 17.1646C21.7176 17.1271 21.7457 17.0929 21.7779 17.063C22.1709 16.6992 22.725 16.5916 23.2236 16.7816C23.7148 16.9689 24.051 17.4105 24.101 17.9341C24.1939 18.9066 24.4656 20.2289 25.2326 21.0062C26.4096 22.1988 29.0998 24.5296 29.1268 24.5531C29.2338 24.6459 29.2955 24.7806 29.2955 24.9222V29.8218C29.2955 30.0552 29.1303 30.256 28.9012 30.3009L23.1723 31.4242C23.1408 31.4306 23.1094 31.4335 23.0779 31.4335Z" fill="#3E4345"/>
</svg>
