<svg width="50" height="50" viewBox="0 0 50 50" fill="none" xmlns="http://www.w3.org/2000/svg">
<path d="M40.537 23.9008L39.2856 23.577C39.2739 23.574 39.2624 23.5715 39.2509 23.5695C39.2577 23.56 39.2641 23.55 39.2702 23.5397L39.9261 22.4258C40.0235 22.2602 39.9968 22.0498 39.8608 21.9139L39.185 21.2381C39.0493 21.1023 38.8387 21.0754 38.6731 21.1729L37.5593 21.8287C37.5489 21.8348 37.5389 21.8412 37.5294 21.848C37.5274 21.8365 37.5249 21.8248 37.522 21.8133L37.1981 20.5619C37.1499 20.376 36.9821 20.2461 36.7901 20.2461H35.8343C35.6421 20.2461 35.4743 20.376 35.4262 20.5619L35.1022 21.8133C35.0993 21.8248 35.0968 21.8365 35.0948 21.848C35.0852 21.8412 35.0753 21.8348 35.0649 21.8287L33.951 21.1729C33.7854 21.0754 33.5751 21.1021 33.4391 21.2381L32.7634 21.9139C32.6276 22.0498 32.6007 22.2604 32.6981 22.4258L33.354 23.5397C33.36 23.55 33.3665 23.56 33.3733 23.5695C33.3618 23.5715 33.3501 23.574 33.3385 23.577L32.0872 23.9008C31.9012 23.949 31.7714 24.1168 31.7714 24.3088V25.2647C31.7714 25.4568 31.9012 25.6246 32.0872 25.6727L33.3385 25.9965C33.3501 25.9994 33.3618 26.002 33.3733 26.0039C33.3665 26.0135 33.36 26.0234 33.354 26.0338L32.6981 27.1477C32.6007 27.3133 32.6274 27.5236 32.7634 27.6596L33.4391 28.3354C33.5751 28.4713 33.7854 28.4981 33.951 28.4006L35.0649 27.7447C35.0753 27.7387 35.0852 27.7322 35.0948 27.7254C35.0968 27.7369 35.0993 27.7486 35.1022 27.7602L35.4262 29.0115C35.4745 29.1975 35.6423 29.3273 35.8343 29.3273H36.7901C36.9823 29.3273 37.1501 29.1975 37.1981 29.0115L37.522 27.7602C37.5249 27.7484 37.5274 27.7369 37.5294 27.7254C37.5389 27.7322 37.5489 27.7387 37.5593 27.7447L38.6731 28.4006C38.8387 28.4981 39.0491 28.4713 39.185 28.3354L39.8608 27.6596C39.9968 27.5236 40.0235 27.3133 39.9261 27.1477L39.2702 26.0338C39.2641 26.0234 39.2577 26.0135 39.2509 26.0039C39.2624 26.002 39.2741 25.9994 39.2856 25.9965L40.537 25.6727C40.7229 25.6244 40.8528 25.4566 40.8528 25.2647V24.3088C40.853 24.1168 40.7231 23.9488 40.537 23.9008ZM36.312 26.3326C35.4583 26.3326 34.7661 25.6404 34.7661 24.7867C34.7661 23.933 35.4583 23.2408 36.312 23.2408C37.1657 23.2408 37.8579 23.933 37.8579 24.7867C37.8577 25.6404 37.1657 26.3326 36.312 26.3326Z" fill="#3E4345"/>
<path d="M25.7438 32.4459C23.8135 32.4459 22.243 34.0164 22.243 35.9467C22.243 37.877 23.8135 39.4473 25.7438 39.4473C27.6741 39.4473 29.2444 37.877 29.2444 35.9467C29.2444 34.0164 27.6739 32.4459 25.7438 32.4459ZM25.7438 38.4707C24.352 38.4707 23.2196 37.3385 23.2196 35.9467C23.2196 34.5549 24.3518 33.4225 25.7438 33.4225C27.1356 33.4225 28.2678 34.5549 28.2678 35.9467C28.2678 37.3385 27.1356 38.4707 25.7438 38.4707Z" fill="#011B1D"/>
<path d="M29.4661 29.9875C29.3788 29.8366 29.2177 29.7434 29.0433 29.7434H22.4441C22.2697 29.7434 22.1083 29.8366 22.0212 29.9875L18.7216 35.7028C18.6343 35.8538 18.6343 36.0401 18.7216 36.1911L22.0212 41.9061C22.1085 42.0571 22.2697 42.1502 22.4441 42.1502H29.0433C29.2177 42.1502 29.3788 42.0571 29.4661 41.9061L32.7657 36.1911C32.8531 36.0401 32.8531 35.8538 32.7657 35.7028L29.4661 29.9875ZM28.7615 41.1737H22.7261L19.7085 35.9469L22.7261 30.72H28.7615L31.7792 35.9469L28.7615 41.1737Z" fill="#011B1D"/>
<path d="M34.7776 12.8015C34.7549 12.4331 34.5258 12.123 34.1799 11.9919C33.8317 11.8601 33.4514 11.9411 33.1883 12.2042L30.8535 14.539L28.6912 13.9464L28.0986 11.7843L30.4336 9.44932C30.6963 9.18663 30.7777 8.80753 30.6459 8.46026C30.5139 8.11241 30.2014 7.88233 29.8299 7.86006C28.2471 7.76592 26.7199 8.37647 25.6399 9.53975C24.4574 10.8134 23.9877 12.6237 24.3809 14.3265L19.7984 18.9093L19.7983 18.9095L15.135 23.573C13.4315 23.18 11.6217 23.6497 10.3483 24.8317C9.18517 25.9114 8.57286 27.4388 8.66856 29.0216C8.69103 29.3929 8.92091 29.7058 9.26896 29.8376C9.61603 29.9696 9.99532 29.8882 10.258 29.6253L12.5932 27.2903L14.7553 27.8829L15.3479 30.045L13.0129 32.38C12.75 32.6431 12.6686 33.0228 12.8006 33.3712C12.9315 33.7171 13.2416 33.9464 13.61 33.9692C13.7193 33.9759 13.8283 33.9794 13.9371 33.9794C15.3766 33.9794 16.7527 33.394 17.7539 32.3456C18.9926 31.0485 19.4871 29.212 19.0785 27.4897L28.2981 18.2704C30.0201 18.6784 31.8568 18.1847 33.1537 16.9458C34.2818 15.8683 34.8736 14.3579 34.7776 12.8015ZM32.4795 16.2394C31.3633 17.3052 29.7586 17.6956 28.2916 17.2579C28.1205 17.2065 27.9338 17.2538 27.8068 17.3806L18.1891 26.9981C18.0623 27.1249 18.015 27.3112 18.0664 27.4829C18.5039 28.9501 18.1137 30.555 17.0477 31.6708C16.1938 32.5648 15.0065 33.045 13.7742 32.9995L16.0567 30.7169C16.2928 30.4808 16.3848 30.1341 16.2965 29.8118L15.6902 27.5995C15.6037 27.2843 15.3539 27.0343 15.0379 26.9474L12.8254 26.3411C12.5031 26.2532 12.1565 26.3452 11.9209 26.5812L9.63849 28.8636C9.59122 27.6087 10.0887 26.4048 11.0127 25.5472C12.1072 24.5314 13.6912 24.1622 15.1469 24.5845C15.3178 24.6341 15.5024 24.5866 15.6281 24.4606L25.2693 14.8192C25.3953 14.6933 25.4426 14.5089 25.393 14.338C24.9707 12.8825 25.3399 11.2985 26.3559 10.204C27.2137 9.27999 28.418 8.78018 29.6723 8.82979L27.3897 11.1126C27.1535 11.3489 27.0617 11.6956 27.15 12.0175L27.7563 14.2294C27.8428 14.5452 28.0928 14.795 28.4086 14.8817L30.6205 15.488C30.943 15.5763 31.2899 15.4845 31.5258 15.2481L33.8082 12.9655C33.8543 14.1972 33.3736 15.3853 32.4795 16.2394Z" fill="#011B1D"/>
<path d="M26.776 27.5106H28.6602C28.8346 27.5106 28.9959 27.4174 29.0831 27.2665L30.025 25.6348C30.1124 25.4838 30.1124 25.2975 30.025 25.1465L29.0831 23.5149C28.9959 23.3639 28.8346 23.2708 28.6602 23.2708H26.776C26.6016 23.2708 26.4403 23.3639 26.3532 23.5149L25.4112 25.1465C25.3239 25.2975 25.3239 25.4838 25.4112 25.6348L26.3532 27.2665C26.4405 27.4176 26.6016 27.5106 26.776 27.5106ZM27.0581 24.2473H28.3784L29.0385 25.3907L28.3784 26.534H27.0581L26.3979 25.3907L27.0581 24.2473Z" fill="#011B1D"/>
<path d="M14.0666 12.9722H14.8967V18.2065C14.8967 18.4763 15.1152 18.6948 15.3849 18.6948H17.8264C18.0961 18.6948 18.3146 18.4763 18.3146 18.2065V12.9722H19.1447C19.4144 12.9722 19.633 12.7536 19.633 12.4839V10.9702C19.633 10.7005 19.4144 10.4819 19.1447 10.4819H14.0666C13.7969 10.4819 13.5783 10.7005 13.5783 10.9702V12.4839C13.5783 12.7536 13.7969 12.9722 14.0666 12.9722ZM17.3381 16.2396L15.8732 15.8294V15.0644L17.3381 15.4745V16.2396ZM15.8732 17.7183V16.8435L17.3381 17.2536V17.7183H15.8732ZM17.3381 14.4604L15.8732 14.0503V12.9722H17.3381V14.4604ZM14.5549 11.4585H18.6564V11.9956H14.5549V11.4585Z" fill="#011B1D"/>
</svg>
