<svg width="50" height="50" viewBox="0 0 50 50" fill="none" xmlns="http://www.w3.org/2000/svg">
<path d="M12.282 16.9495H8.90504C8.78101 16.9495 8.68082 17.0499 8.68082 17.1737V22.6247C8.68082 22.7485 8.78101 22.8489 8.90504 22.8489H9.36558C9.48941 22.8489 9.5898 22.7485 9.5898 22.6247V20.2993H11.9078C12.0316 20.2993 12.132 20.1989 12.132 20.075V19.6858C12.132 19.562 12.0316 19.4616 11.9078 19.4616H9.58961V17.7872H12.2818C12.4058 17.7872 12.506 17.6868 12.506 17.5629V17.1735C12.5062 17.0499 12.4058 16.9495 12.282 16.9495Z" fill="#3E4345"/>
<path d="M16.488 20.3713C16.7579 20.2483 16.9835 20.0696 17.1615 19.8379C17.3958 19.5323 17.5146 19.1756 17.5146 18.778C17.5146 18.2061 17.3234 17.7514 16.9462 17.4264C16.5788 17.11 16.071 16.9495 15.4372 16.9495H13.6663C13.5425 16.9495 13.4421 17.0499 13.4421 17.1737V22.6247C13.4421 22.7485 13.5423 22.8489 13.6663 22.8489H14.1306C14.2544 22.8489 14.3548 22.7485 14.3548 22.6247V20.5764H15.5851L16.8382 22.7372C16.8783 22.8063 16.9523 22.8489 17.0322 22.8489H17.5226C17.6466 22.8489 17.7468 22.7485 17.7468 22.6247V22.576C17.7468 22.536 17.7361 22.4969 17.716 22.4625L16.488 20.3713ZM14.3548 17.7874H15.4296C15.8136 17.7874 16.1107 17.876 16.3122 18.051C16.5072 18.2204 16.6019 18.4581 16.6019 18.778C16.6019 19.0659 16.5099 19.292 16.321 19.4694C16.1277 19.6506 15.8728 19.7387 15.5419 19.7387H14.3548V17.7874Z" fill="#3E4345"/>
<path d="M22.3967 22.0112H19.6893V20.2358H22.0149C22.1387 20.2358 22.2391 20.1354 22.2391 20.0116V19.6221C22.2391 19.4983 22.1389 19.3979 22.0149 19.3979H19.6893V17.7874H22.3778C22.5016 17.7874 22.602 17.687 22.602 17.5631V17.1737C22.602 17.0499 22.5018 16.9495 22.3778 16.9495H19.0046C18.8805 16.9495 18.7803 17.0499 18.7803 17.1737V22.6247C18.7803 22.7485 18.8805 22.8489 19.0046 22.8489H22.3965C22.5204 22.8489 22.6208 22.7485 22.6208 22.6247V22.2352C22.6208 22.1116 22.5206 22.0112 22.3967 22.0112Z" fill="#3E4345"/>
<path d="M27.2185 22.0112H24.511V20.2358H26.8364C26.9604 20.2358 27.0606 20.1354 27.0606 20.0116V19.6221C27.0606 19.4983 26.9604 19.3979 26.8364 19.3979H24.511V17.7874H27.1995C27.3235 17.7874 27.4237 17.687 27.4237 17.5631V17.1737C27.4237 17.0499 27.3235 16.9495 27.1995 16.9495H23.8263C23.7024 16.9495 23.6021 17.0499 23.6021 17.1737V22.6247C23.6021 22.7485 23.7022 22.8489 23.8263 22.8489H27.2183C27.3421 22.8489 27.4425 22.7485 27.4425 22.6247V22.2352C27.4427 22.1116 27.3423 22.0112 27.2185 22.0112Z" fill="#3E4345"/>
<path d="M35.8719 28.7896C33.2971 28.7896 31.2023 30.8843 31.2023 33.4593C31.2023 36.0343 33.2973 38.1292 35.8719 38.1292C38.4469 38.1292 40.5416 36.0343 40.5416 33.4593C40.5416 30.8843 38.4469 28.7896 35.8719 28.7896ZM35.8719 37.1526C33.8355 37.1526 32.1789 35.4958 32.1789 33.4593C32.1789 31.4228 33.8355 29.7661 35.8719 29.7661C37.9084 29.7661 39.565 31.4228 39.565 33.4593C39.565 35.4958 37.9084 37.1526 35.8719 37.1526Z" fill="#011B1D"/>
<path d="M15.357 28.7896C12.782 28.7896 10.6873 30.8843 10.6873 33.4593C10.6873 36.0343 12.7822 38.1292 15.357 38.1292C17.9318 38.1292 20.0268 36.0343 20.0268 33.4593C20.0268 30.8843 17.9318 28.7896 15.357 28.7896ZM15.357 37.1526C13.3205 37.1526 11.6639 35.4958 11.6639 33.4593C11.6639 31.4228 13.3205 29.7661 15.357 29.7661C17.3936 29.7661 19.0502 31.4228 19.0502 33.4593C19.0502 35.4958 17.3936 37.1526 15.357 37.1526Z" fill="#011B1D"/>
<path d="M43.9019 23.9249L39.3968 16.5526C38.9258 15.7815 38.0717 15.3026 37.1679 15.3026H30.0377V12.3593C30.0377 12.0895 29.8191 11.871 29.5494 11.871H6.20329C5.93357 11.871 5.71501 12.0895 5.71501 12.3593V31.3352C5.71501 32.7757 6.88689 33.9475 8.32732 33.9475H9.1072C9.37692 33.9475 9.59548 33.729 9.59548 33.4592C9.59548 33.1895 9.37692 32.971 9.1072 32.971H8.32732C7.42536 32.971 6.69157 32.2372 6.69157 31.3352V27.4538H29.0611V32.7585H21.8142C21.5445 32.7585 21.3259 32.977 21.3259 33.2467C21.3259 33.5165 21.5445 33.735 21.8142 33.735H29.5494C29.8191 33.735 30.0377 33.5165 30.0377 33.2467V16.2792H37.1679C37.734 16.2792 38.2687 16.5792 38.5636 17.0618L39.1109 17.9573H31.6119C31.3422 17.9573 31.1236 18.1759 31.1236 18.4456V24.8706C31.1236 25.1403 31.3422 25.3589 31.6119 25.3589H43.3088V31.3632C43.3088 32.1844 42.6406 32.8524 41.8195 32.8524C41.5498 32.8524 41.3312 33.071 41.3312 33.3407C41.3312 33.6104 41.5498 33.829 41.8195 33.829C43.1793 33.829 44.2853 32.7227 44.2853 31.3632V25.2868C44.2853 24.8059 44.1527 24.335 43.9019 23.9249ZM6.69157 12.8475H29.0611V26.4772H6.69157V12.8475ZM32.1002 18.9339H39.7076L43.0371 24.3823H32.1002V18.9339Z" fill="#011B1D"/>
</svg>
