<svg width="50" height="50" viewBox="0 0 50 50" fill="none" xmlns="http://www.w3.org/2000/svg">
<path d="M11.5245 30.5337C11.5245 30.8032 11.3057 31.0218 11.0362 31.0218H11.036L5.69128 31.02C4.88386 31.0198 4.12488 30.7052 3.55417 30.1339C2.98327 29.5628 2.66921 28.8034 2.6696 27.996L2.67468 12.2315C2.67488 11.4241 2.98952 10.6651 3.56081 10.0944C4.13152 9.5239 4.8905 9.20984 5.69714 9.20984H5.69851L33.7807 9.21902C34.5882 9.21921 35.3471 9.53406 35.9178 10.1052C36.4887 10.6762 36.8028 11.4356 36.8024 12.243L36.8008 17.0749C36.8008 17.3444 36.5821 17.563 36.3126 17.563C36.3126 17.563 36.3126 17.563 36.3124 17.563C36.0426 17.5628 35.8243 17.3442 35.8243 17.0745L35.8258 12.2427C35.826 11.696 35.6133 11.1821 35.227 10.7954C34.8407 10.4089 34.327 10.1958 33.7803 10.1956L5.69812 10.1864H5.69734C5.15085 10.1864 4.63737 10.3991 4.25105 10.7852C3.86452 11.1718 3.65144 11.6854 3.65124 12.2319L3.64616 27.9964C3.64597 28.5428 3.85866 29.0569 4.24499 29.4436C4.63112 29.8302 5.14499 30.0432 5.69167 30.0434L11.0364 30.0452C11.3061 30.0452 11.5245 30.2639 11.5245 30.5337ZM47.3307 22.003V37.7675C47.3307 39.4343 45.9749 40.7903 44.3079 40.7903H16.2257C14.5589 40.7903 13.2026 39.4343 13.2026 37.7675V22.003C13.2026 20.3362 14.5587 18.98 16.2257 18.98H44.3079C45.9749 18.9802 47.3307 20.3362 47.3307 22.003ZM46.3542 22.003C46.3542 20.8747 45.4362 19.9565 44.3079 19.9565H16.2257C15.0973 19.9565 14.1792 20.8745 14.1792 22.003V37.7675C14.1792 38.8958 15.0971 39.8137 16.2257 39.8137H44.3079C45.436 39.8137 46.3542 38.8958 46.3542 37.7675V22.003ZM15.8682 27.9503V25.2468C15.8682 24.4184 16.5421 23.7446 17.3702 23.7446H20.0739C20.902 23.7446 21.576 24.4184 21.576 25.2468V27.9503C21.576 28.7786 20.9022 29.4522 20.0739 29.4522H17.3704C16.5421 29.4522 15.8682 28.7784 15.8682 27.9503ZM16.8448 27.9503C16.8448 28.2399 17.0805 28.4757 17.3702 28.4757H20.0739C20.3635 28.4757 20.5995 28.2399 20.5995 27.9503V25.2468C20.5995 24.9569 20.3637 24.7212 20.0739 24.7212H17.3704C17.0807 24.7212 16.845 24.9569 16.845 25.2468V27.9503H16.8448ZM10.8073 20.544H5.84734C5.57761 20.544 5.35905 20.7626 5.35905 21.0323C5.35905 21.302 5.57761 21.5206 5.84734 21.5206H10.8073C11.077 21.5206 11.2956 21.302 11.2956 21.0323C11.2956 20.7626 11.077 20.544 10.8073 20.544ZM10.8073 23.4245H5.84734C5.57761 23.4245 5.35905 23.643 5.35905 23.9128C5.35905 24.1825 5.57761 24.4011 5.84734 24.4011H10.8073C11.077 24.4011 11.2956 24.1825 11.2956 23.9128C11.2956 23.643 11.077 23.4245 10.8073 23.4245ZM16.6827 32.9817C16.413 32.9817 16.1944 33.2003 16.1944 33.47C16.1944 33.7397 16.413 33.9583 16.6827 33.9583H21.0878C21.3575 33.9583 21.576 33.7397 21.576 33.47C21.576 33.2003 21.3575 32.9817 21.0878 32.9817H16.6827ZM27.9553 35.9182H16.6827C16.413 35.9182 16.1944 36.1368 16.1944 36.4065C16.1944 36.6762 16.413 36.8948 16.6827 36.8948H27.9553C28.2251 36.8948 28.4436 36.6762 28.4436 36.4065C28.4436 36.1368 28.2251 35.9182 27.9553 35.9182ZM27.9553 32.9817H23.5503C23.2805 32.9817 23.062 33.2003 23.062 33.47C23.062 33.7397 23.2805 33.9583 23.5503 33.9583H27.9553C28.2251 33.9583 28.4436 33.7397 28.4436 33.47C28.4436 33.2003 28.2251 32.9817 27.9553 32.9817ZM34.8227 32.9817H30.4176C30.1479 32.9817 29.9294 33.2003 29.9294 33.47C29.9294 33.7397 30.1479 33.9583 30.4176 33.9583H34.8227C35.0925 33.9583 35.311 33.7397 35.311 33.47C35.311 33.2003 35.0925 32.9817 34.8227 32.9817ZM41.6903 32.9817H37.2852C37.0155 32.9817 36.7969 33.2003 36.7969 33.47C36.7969 33.7397 37.0155 33.9583 37.2852 33.9583H41.6903C41.96 33.9583 42.1786 33.7397 42.1786 33.47C42.1786 33.2003 41.96 32.9817 41.6903 32.9817Z" fill="#011B1D"/>
<path d="M37.5738 29.259C37.2936 29.259 37.027 29.1387 36.8416 28.9285L34.8434 26.6635C34.4865 26.259 34.525 25.642 34.9295 25.285C35.334 24.9284 35.951 24.9668 36.3078 25.3711L37.5682 26.7996L40.3674 23.578C40.7211 23.1707 41.3383 23.1278 41.7451 23.4813C42.1524 23.835 42.1957 24.4518 41.8418 24.859L38.3111 28.9227C38.1266 29.1352 37.8592 29.2576 37.5776 29.2588C37.5764 29.259 37.575 29.259 37.5738 29.259Z" fill="#3E4345"/>
</svg>
