<svg width="24" height="24" viewBox="0 0 24 24" fill="none" xmlns="http://www.w3.org/2000/svg">
<path fill-rule="evenodd" clip-rule="evenodd" d="M17.1249 2.69856C17.5392 2.69856 17.8749 3.03435 17.8749 3.44856L17.8749 17.6985C17.8749 18.1128 17.5391 18.4485 17.1249 18.4485C16.7107 18.4485 16.3749 18.1128 16.3749 17.6985L16.3749 3.44856C16.3749 3.03435 16.7107 2.69856 17.1249 2.69856Z" fill="#191B1C"/>
<path fill-rule="evenodd" clip-rule="evenodd" d="M11.1249 11.875C11.5392 11.875 11.8749 12.2108 11.8749 12.625L11.8749 17.6985C11.8749 18.1128 11.5391 18.4485 11.1249 18.4485C10.7107 18.4485 10.3749 18.1128 10.3749 17.6985L10.3749 12.625C10.3749 12.2108 10.7107 11.875 11.1249 11.875Z" fill="#191B1C"/>
<path fill-rule="evenodd" clip-rule="evenodd" d="M5.12491 7.69855C5.53912 7.69855 5.87491 8.03433 5.87491 8.44855V17.6985C5.87491 18.1128 5.53912 18.4485 5.12491 18.4485C4.71069 18.4485 4.37491 18.1128 4.37491 17.6985V8.44855C4.37491 8.03433 4.71069 7.69855 5.12491 7.69855Z" fill="#191B1C"/>
<path fill-rule="evenodd" clip-rule="evenodd" d="M17.1249 1.94855C17.419 1.94855 17.686 2.12045 17.8077 2.3882L20.3077 7.8882C20.4791 8.26528 20.3124 8.70992 19.9353 8.88132C19.5582 9.05272 19.1136 8.88599 18.9422 8.5089L17.1249 4.511L15.3077 8.5089C15.1363 8.88599 14.6917 9.05272 14.3146 8.88132C13.9375 8.70992 13.7708 8.26528 13.9422 7.8882L16.4422 2.3882C16.5639 2.12045 16.8308 1.94855 17.1249 1.94855Z" fill="#191B1C"/>
<path fill-rule="evenodd" clip-rule="evenodd" d="M3.62491 20.5107C3.62491 20.0965 3.96069 19.7607 4.37491 19.7607H17.8852C18.2994 19.7607 18.6352 20.0965 18.6352 20.5107C18.6352 20.925 18.2994 21.2607 17.8852 21.2607H4.37491C3.96069 21.2607 3.62491 20.925 3.62491 20.5107Z" fill="#191B1C"/>
</svg>
