<svg width="25" height="24" viewBox="0 0 25 24" fill="none" xmlns="http://www.w3.org/2000/svg">
<g id="icon/action/loyalty_24px">
<path id="icon/action/loyalty_24px_2" fill-rule="evenodd" clip-rule="evenodd" d="M11.9201 1.58502H2.09009V11.415L13.0801 22.415C13.0801 22.415 14.1301 21.365 14.4901 20.995L22.9101 12.585L11.9201 1.58502ZM5.59009 6.58502C4.76009 6.58502 4.09009 5.91502 4.09009 5.08502C4.09009 4.25502 4.76009 3.58502 5.59009 3.58502C6.42009 3.58502 7.09009 4.25502 7.09009 5.08502C7.09009 5.91502 6.42009 6.58502 5.59009 6.58502ZM8.82009 14.855L13.0901 19.125L17.3601 14.855C17.8101 14.405 18.0901 13.775 18.0901 13.085C18.0901 11.705 16.9701 10.585 15.5901 10.585C14.9001 10.585 14.2701 10.865 13.8201 11.315L13.0901 12.045L12.3601 11.325C11.9101 10.865 11.2801 10.585 10.5901 10.585C9.21009 10.585 8.09009 11.705 8.09009 13.085C8.09009 13.775 8.37009 14.395 8.82009 14.855Z" fill="white"/>
</g>
</svg>
