<svg width="34" height="35" viewBox="0 0 34 35" fill="none" xmlns="http://www.w3.org/2000/svg">
<g clip-path="url(#clip0)">
<path d="M31.4353 9.98707L30.1525 11.2708C33.1202 14.2404 33.1202 19.0708 30.1525 22.0385L31.4353 23.3242C35.1115 19.646 35.1115 13.6633 31.4353 9.98707ZM29.1443 12.2761L27.8615 13.5599C29.5706 15.266 29.5706 18.0442 27.8615 19.7494L29.1452 21.0332C31.56 18.6194 31.56 14.6909 29.1443 12.2761ZM2.56479 23.3232L3.84756 22.0395C0.879892 19.0718 0.879892 14.2404 3.84756 11.2708L2.56479 9.98707C-1.11144 13.6633 -1.11144 19.646 2.56479 23.3232ZM4.85483 21.0341L6.13856 19.7504C4.43143 18.0442 4.43143 15.267 6.13953 13.5608L4.85579 12.2771C2.44009 14.6909 2.44009 18.6194 4.85483 21.0341ZM25.4236 4.95847V30.0425C25.4236 31.1184 24.542 32 23.4651 32H10.5369C9.46003 32 8.57843 31.1184 8.57843 30.0425V4.95847C8.57843 3.8816 9.46003 3 10.5369 3H23.4651C24.542 3 25.4236 3.8816 25.4236 4.95847ZM14.6945 4.64913C14.6945 4.77963 14.8009 4.88597 14.9323 4.88597H19.0677C19.1992 4.88597 19.3046 4.77963 19.3046 4.64913C19.3046 4.51767 19.1992 4.41133 19.0677 4.41133H14.9323C14.8018 4.41133 14.6945 4.51767 14.6945 4.64913ZM17.9802 30.0425C17.9802 29.5002 17.5414 29.0623 17 29.0623C16.4587 29.0623 16.0208 29.5012 16.0208 30.0425C16.0208 30.5829 16.4587 31.0208 17 31.0208C17.5414 31.0208 17.9802 30.5829 17.9802 30.0425ZM24.0606 6.1059H9.94046V28.375H24.0606V6.1059Z" fill="#191B1C"/>
</g>
<defs>
<clipPath id="clip0">
<path d="M0 0.5H34V34.5H0V0.5Z" fill="white"/>
</clipPath>
</defs>
</svg>
