<svg width="24" height="24" viewBox="0 0 24 24" fill="none" xmlns="http://www.w3.org/2000/svg">
<path fill-rule="evenodd" clip-rule="evenodd" d="M23.0001 3.25002C23.4143 3.25002 23.7501 3.5858 23.7501 4.00002V10C23.7501 10.4142 23.4143 10.75 23.0001 10.75H17.0001C16.5859 10.75 16.2501 10.4142 16.2501 10C16.2501 9.5858 16.5859 9.25001 17.0001 9.25001H22.2501V4.00002C22.2501 3.5858 22.5859 3.25002 23.0001 3.25002Z" fill="#191B1C"/>
<path fill-rule="evenodd" clip-rule="evenodd" d="M13.1627 3.83373C11.3917 3.58252 9.58698 3.91372 8.02057 4.77743C6.45415 5.64114 5.21089 6.99055 4.47812 8.62232C3.74535 10.2541 3.56277 12.0798 3.95791 13.8244C4.35305 15.569 5.30448 17.1378 6.66885 18.2946C8.03322 19.4514 9.73659 20.1334 11.5223 20.2379C13.308 20.3424 15.0793 19.8636 16.5692 18.8738C18.0592 17.884 19.187 16.4368 19.7829 14.7502C19.9209 14.3596 20.3494 14.1549 20.7399 14.2929C21.1305 14.4308 21.3352 14.8593 21.1972 15.2499C20.493 17.2431 19.1601 18.9535 17.3992 20.1232C15.6384 21.293 13.5451 21.8588 11.4347 21.7353C9.32432 21.6119 7.31124 20.8059 5.6988 19.4387C4.08637 18.0716 2.96195 16.2175 2.49497 14.1557C2.02799 12.094 2.24375 9.93631 3.10975 8.00784C3.97576 6.07938 5.44507 4.48462 7.29629 3.46388C9.1475 2.44313 11.2803 2.05171 13.3734 2.34859C15.4626 2.64493 17.3991 3.61102 18.8924 5.10165L23.5142 9.454C23.8158 9.73797 23.8301 10.2126 23.5461 10.5142C23.2621 10.8157 22.7875 10.83 22.4859 10.546L17.8559 6.18603C17.8504 6.18083 17.8449 6.17554 17.8396 6.17018C16.5751 4.90494 14.9337 4.08493 13.1627 3.83373Z" fill="#191B1C"/>
</svg>
