<svg width="24" height="24" viewBox="0 0 24 24" fill="none" xmlns="http://www.w3.org/2000/svg">
<path fill-rule="evenodd" clip-rule="evenodd" d="M12 1.25C12.2855 1.25 12.5462 1.41205 12.6725 1.66803L15.5882 7.57485L22.1085 8.52789C22.3909 8.56917 22.6254 8.76717 22.7134 9.03868C22.8015 9.31018 22.7278 9.60812 22.5233 9.80727L17.8059 14.402L18.9192 20.8932C18.9675 21.1746 18.8518 21.459 18.6208 21.6268C18.3898 21.7946 18.0836 21.8167 17.8309 21.6838L12 18.6174L6.16908 21.6838C5.91639 21.8167 5.61017 21.7946 5.37919 21.6268C5.14821 21.459 5.03252 21.1746 5.08079 20.8932L6.1941 14.402L1.47669 9.80727C1.27223 9.60812 1.19852 9.31018 1.28656 9.03868C1.37459 8.76717 1.6091 8.56917 1.89152 8.52789L8.4118 7.57485L11.3275 1.66803C11.4538 1.41205 11.7145 1.25 12 1.25ZM12 3.69444L9.58252 8.59197C9.47337 8.8131 9.26248 8.96645 9.01846 9.00211L3.6113 9.79245L7.52329 13.6027C7.7002 13.775 7.78094 14.0234 7.7392 14.2668L6.81613 19.6488L11.6509 17.1062C11.8694 16.9913 12.1305 16.9913 12.3491 17.1062L17.1839 19.6488L16.2608 14.2668C16.219 14.0234 16.2998 13.775 16.4767 13.6027L20.3887 9.79245L14.9815 9.00211C14.7375 8.96645 14.5266 8.8131 14.4175 8.59197L12 3.69444Z" fill="#191B1C"/>
</svg>
